<svg version="1.0" xmlns="http://www.w3.org/2000/svg"
    width="100" height="100" viewBox="0 0 189.000000 189.000000"
    preserveAspectRatio="xMidYMid meet" style="display: block; margin: 0 auto;">
    <g transform="translate(0.000000,189.000000) scale(0.100000,-0.100000)"
    fill="#000000" stroke="none">
        <path d="M1256 1767 c-44 -25 -76 -77 -76 -123 0 -27 -4 -32 -32 -39 -18 -3
        -60 -8 -93 -10 -69 -3 -124 -22 -210 -70 -86 -48 -95 -61 -107 -152 -5 -43
        -13 -100 -16 -128 l-7 -50 -145 -5 c-158 -5 -179 -12 -210 -63 -19 -30 -20
        -54 -20 -434 l0 -403 -88 0 c-116 0 -124 -8 -120 -111 l3 -74 290 0 290 0 3
        74 c4 103 -4 111 -120 111 l-88 0 0 348 c0 420 -13 386 142 378 139 -8 173 -8
        242 0 l58 6 -7 -34 c-13 -55 -8 -114 14 -178 19 -55 26 -90 18 -90 -2 0 -21 8
        -43 18 -21 10 -90 31 -153 47 -105 26 -115 27 -126 12 -7 -9 -34 -69 -60 -133
        -46 -112 -48 -117 -30 -130 41 -30 123 -2 173 59 12 14 24 8 116 -49 114 -72
        212 -104 267 -88 27 8 35 19 61 83 35 88 74 243 82 326 17 162 14 155 50 155
        66 0 66 2 66 -383 l0 -347 -88 0 c-116 0 -124 -8 -120 -111 l3 -74 290 0 290
        0 3 74 c4 103 -4 111 -120 111 l-88 0 0 400 c0 435 0 435 -56 479 -22 17 -41
        21 -104 21 l-76 0 18 88 c9 48 20 118 24 155 6 57 11 70 28 77 76 29 111 142
        64 209 -27 40 -81 71 -123 71 -16 0 -48 -10 -69 -23z m114 -42 c59 -30 68 -98
        21 -146 -78 -77 -200 14 -147 110 15 26 51 50 79 51 10 0 31 -7 47 -15z m-144
        -185 c19 -16 46 -33 59 -36 32 -8 32 -22 3 -186 l-23 -128 -108 0 c-92 0 -108
        2 -103 15 3 8 11 51 18 96 12 75 16 84 45 103 49 32 71 104 41 134 -10 10 -10
        15 2 22 23 15 30 12 66 -20z m-124 -7 c57 -51 -18 -115 -172 -146 l-65 -14 -5
        -59 c-3 -32 -14 -81 -24 -108 -16 -38 -17 -52 -8 -67 7 -10 12 -32 12 -49 0
        -23 -5 -31 -24 -36 -33 -8 -66 4 -66 24 -1 32 42 337 50 352 11 23 129 88 190
        104 72 19 90 19 112 -1z m-73 -185 c0 -7 -6 -44 -12 -83 l-12 -70 -62 -3 -62
        -3 14 35 c8 20 15 51 15 70 0 31 4 36 28 42 15 3 38 10 52 14 35 12 40 12 39
        -2z m-344 -204 c17 -4 20 -12 17 -39 l-4 -33 -90 -4 c-87 -3 -91 -4 -119 -36
        l-29 -33 2 -377 3 -377 103 -3 102 -3 0 -44 0 -45 -245 0 -245 0 0 45 0 44
        103 3 102 3 5 427 c6 492 -2 459 103 469 87 8 168 10 192 3z m706 -2 c39 -1
        64 -8 80 -21 l24 -19 5 -429 5 -428 103 -3 102 -3 0 -44 0 -45 -246 0 -245 0
        3 46 3 46 100 2 100 1 5 153 c3 85 2 156 -1 158 -7 4 -6 376 2 389 11 17 -10
        70 -37 96 -25 24 -27 24 -265 27 l-239 3 0 37 0 37 223 -1 c122 0 247 -1 278
        -2z m-221 -122 c66 0 67 0 62 -25 -5 -30 -4 -30 -105 -4 -45 12 -97 21 -114
        20 -20 -1 -33 3 -33 10 0 9 17 10 61 5 34 -3 92 -6 129 -6z m-123 -55 c21 -8
        67 -21 102 -29 34 -8 65 -17 68 -19 16 -16 -43 -270 -86 -371 l-21 -48 -47 7
        c-26 4 -66 16 -88 27 -32 16 -176 101 -194 115 -8 5 33 73 44 73 38 0 122 -36
        147 -62 23 -25 31 -28 43 -18 21 18 19 103 -5 170 -20 58 -27 170 -10 170 5 0
        27 -7 47 -15z m-304 -274 c-42 -75 -110 -137 -129 -118 -2 2 7 28 20 58 13 30
        31 70 39 90 l15 37 40 -11 41 -11 -26 -45z"/>
    </g>
</svg>